<svg height="512pt" viewBox="-6 0 512 512" width="512pt" xmlns="http://www.w3.org/2000/svg"><path d="m375.898438 292.945312 108.757812 52.015626v167.035156h-108.757812zm0 0" fill="#cdbfba"/><path d="m484.660156 344.804688v167.195312h-23.101562v-178.25zm0 0" fill="#b9acac"/><path d="m124.269531 293.261719-108.757812 52.015625v166.71875h108.757812zm0 0" fill="#cdbfba"/><path d="m16.175781 355.699219 108.09375-51.695313v-41.425781l-117.722656 54.597656c-3.992187 1.851563-6.546875 5.851563-6.546875 10.25v18.078125c0 8.316406 8.675781 13.78125 16.175781 10.195313zm0 0" fill="#ff4343"/><path d="m375.898438 420.855469h108.757812v91.140625h-108.757812zm0 0" fill="#575f64"/><path d="m483.988281 355.699219-108.089843-51.695313v-41.425781l117.71875 54.597656c3.992187 1.851563 6.546874 5.851563 6.546874 10.25v18.078125c0 8.316406-8.675781 13.78125-16.175781 10.195313zm0 0" fill="#ff4343"/><path d="m500.164062 327.429688v18.070312c0 8.316406-8.675781 13.78125-16.179687 10.195312l-10.6875-5.113281v-42.828125l20.320313 9.421875c3.992187 1.851563 6.546874 5.851563 6.546874 10.253907zm0 0" fill="#f72c2c"/><path d="m15.542969 420.855469h108.726562v91.140625h-108.726562zm0 0" fill="#575f64"/><path d="m461.558594 420.855469h23.097656v91.140625h-23.097656zm0 0" fill="#474f54"/><path d="m296.511719 31.746094h-30.570313v-27.316406c0-2.445313-1.984375-4.429688-4.433594-4.429688h-23.304687c-2.445313 0-4.429687 1.984375-4.429687 4.429688v27.316406h-30.574219c-2.445313 0-4.429688 1.984375-4.429688 4.433594v18.867187c0 2.445313 1.984375 4.429687 4.429688 4.429687h30.574219v66.382813h32.167968v-66.382813h30.570313c2.449219 0 4.433593-1.984374 4.433593-4.429687v-18.867187c-.003906-2.449219-1.984374-4.433594-4.433593-4.433594zm0 0" fill="#575f64"/><path d="m300.941406 36.175781v8.296875h-39.949218c-4.691407 0-8.496094-3.800781-8.496094-8.496094v-35.97265575h9.011718c2.449219 0 4.433594 1.98046875 4.433594 4.42968775v27.308594h30.570313c2.445312 0 4.429687 1.984374 4.429687 4.433593zm0 0" fill="#474f54"/><path d="m249.863281 141.382812-137.390625 65.710938v304.902344h274.785156v-304.902344zm0 0" fill="#efe2dd"/><path d="m387.253906 207.09375v304.90625h-32.734375v-320.566406zm0 0" fill="#e1d3ce"/><path d="m245.46875 112.84375-162.710938 76.679688c-3.742187 1.761718-6.128906 5.527343-6.128906 9.664062v22.582031c0 7.734375 7.957032 12.902344 15.023438 9.761719l20.820312-9.25 132.941406-63.582031c2.8125-1.347657 6.085938-1.347657 8.902344 0l132.941406 63.582031 20.820313 9.25c7.0625 3.140625 15.019531-2.027344 15.019531-9.761719v-22.582031c0-4.136719-2.386718-7.902344-6.128906-9.664062l-162.707031-76.679688c-2.785157-1.3125-6.007813-1.3125-8.792969 0zm0 0" fill="#ff4343"/><path d="m423.101562 199.191406v22.578125c0 7.730469-7.957031 12.902344-15.019531 9.765625l-16.683593-7.410156v-46.648438l25.574218 12.046876c3.742188 1.765624 6.128906 5.53125 6.128906 9.667968zm0 0" fill="#f72c2c"/><path d="m320.042969 511.996094h-140.371094v-148.546875c0-38.761719 31.421875-70.183594 70.183594-70.183594s70.1875 31.421875 70.1875 70.183594zm0 0" fill="#ff4343"/><path d="m320.046875 363.449219v148.550781h-31.703125v-148.550781c0-19.382813-7.847656-36.929688-20.558594-49.628907-9.128906-9.128906-20.757812-15.75-33.773437-18.765624 5.09375-1.175782 10.398437-1.792969 15.84375-1.792969 19.382812 0 36.929687 7.859375 49.628906 20.558593 12.699219 12.699219 20.5625 30.246094 20.5625 49.628907zm0 0" fill="#f72c2c"/><path d="m281.550781 230.09375c0 17.503906-14.1875 31.691406-31.695312 31.691406-17.503907 0-31.695313-14.1875-31.695313-31.691406 0-17.507812 14.191406-31.695312 31.695313-31.695312 17.507812 0 31.695312 14.1875 31.695312 31.695312zm0 0" fill="#ffc143"/><path d="m281.546875 230.089844c0 17.503906-14.183594 31.699218-31.691406 31.699218-6.703125 0-12.933594-2.085937-18.050781-5.652343 16.886718-.703125 30.359374-14.617188 30.359374-31.671875 0-10.789063-5.394531-20.320313-13.636718-26.035156.441406-.023438.886718-.03125 1.328125-.03125 17.507812 0 31.691406 14.195312 31.691406 31.691406zm0 0" fill="#ffb509"/></svg>